<?xml version="1.0" encoding="utf-8"?>
<svg viewBox="109.347 272.469 254.419 248.748" xmlns="http://www.w3.org/2000/svg">
  <path d="M 297.456 399.922 C 304.662 415.713 288.361 439.352 241.774 445.358 C 195.187 451.364 150.254 459.958 152.656 437.687 C 155.058 415.416 191.135 370.572 241.774 370.572 C 292.412 370.572 290.25 384.131 297.456 399.922 Z" style="stroke: rgb(0, 0, 0); fill: rgb(255, 255, 255); stroke-width: 3px; transform-origin: 225.826px 411.351px;" transform="matrix(0.981626987457, -0.190808981657, 0.190808981657, 0.981626987457, 0.938936228086, 2.98062402328)"/>
  <circle style="stroke: rgb(0, 0, 0); transform-origin: 233.247px 424.361px;" cx="233.247" cy="424.361" r="47.125" transform="matrix(0.794136941433, -0.026544997469, 0.02584800683, 0.7732629776, -5.16766502469, -11.551015898533)"/>
  <circle style="stroke: rgb(0, 0, 0); fill: rgb(255, 255, 255);" cx="228.632" cy="412.413" r="10" transform="matrix(0.9999999999999999, 0, 0, 0.9999999999999999, 0, 7.105427357601002e-15)"/>
  <path style="fill: rgb(255, 255, 255);" d="M 139.703 389.805 C 139.255 391.186 195.34 338.5 219.597 325.993 C 241.073 314.92 282.146 316.216 281.778 316.368 C 281.03 313.728 236.667 290.254 215.825 300.259 C 192.122 311.638 140.853 386.259 139.703 389.805 Z" transform="matrix(0.9999999999999999, 0, 0, 0.9999999999999999, 0, 7.105427357601002e-15)"/>
</svg>