<?xml version="1.0" encoding="utf-8"?>
<svg xmlns="http://www.w3.org/2000/svg" viewBox="65.832 21.805 368.3364 456.39" width="368.336px" height="456.39px">
  <path style="stroke: rgb(0, 0, 0);" d="M 256.649 325.077 L 256.387 433.015 C 256.387 433.015 177.612 407.81 175.733 406.871 C 173.854 405.932 194.903 330.265 194.903 330.265 L 256.649 325.077 Z" transform="matrix(1.0000000000000002, 0, 0, 1.0000000000000002, 0, 0)">
    <title>mouth</title>
  </path>
  <path style="stroke: rgb(0, 0, 0); fill: rgb(255, 255, 255);" d="M 208.175 351.153 C 208.175 351.153 233.155 352.109 232.676 351.511 C 232.197 350.913 229.688 327.846 229.688 327.846 L 208.055 329.4 L 208.175 351.153 Z" transform="matrix(1.0000000000000002, 0, 0, 1.0000000000000002, 0, 0)"/>
  <path style="stroke: rgb(0, 0, 0); fill: rgb(255, 255, 255);" d="M 226.876 352.049 C 226.876 352.049 240.058 351.861 240.247 351.861 C 240.436 351.861 239.493 326.815 239.493 326.815 L 225.935 327.757 L 226.876 352.049 Z" transform="matrix(1.0000000000000002, 0, 0, 1.0000000000000002, 0, 0)"/>
  <path style="stroke: rgb(0, 0, 0); fill: rgb(255, 255, 255);" d="M 209.362 398.032 L 203.58 416.12 L 217.961 420.567 L 224.188 400.552 L 209.362 398.032 Z" transform="matrix(1.0000000000000002, 0, 0, 1.0000000000000002, 0, 0)"/>
  <path style="stroke: rgb(0, 0, 0); fill: rgb(255, 255, 255);" d="M 223.186 399.661 L 216.811 419.973 L 229.858 424.272 L 236.529 405.147 L 223.186 399.661 Z" transform="matrix(1.0000000000000002, 0, 0, 1.0000000000000002, 0, 0)"/>
</svg>