
<svg xmlns="http://www.w3.org/2000/svg" viewBox="65.832 21.805 368.3364 456.39" width="368.336px" height="456.39px">
  <path style="fill: rgb(255, 149, 149);" d="M 156.806 264.304 L 140.255 322.869 C 140.255 322.869 169.538 429.815 170.811 429.815 C 172.084 429.815 164.445 476.921 164.445 476.921 L 309.585 478.195 L 336.322 311.411 L 352.873 329.235 L 380.882 247.753 L 341.414 247.753 L 363.058 134.441 L 215.372 78.422 L 131.343 126.803 L 168.265 227.382 C 168.265 227.382 159.353 265.577 156.806 264.304 Z" transform="matrix(0.9999999999999999, 0, 0, 0.9999999999999999, -5.684341886080802e-14, -1.4210854715202004e-14)">
    <title>face</title>
  </path>
  <circle style="stroke: rgb(0, 0, 0); fill: rgb(255, 255, 255);" transform="matrix(1.5914499759674072, 0, 0, 2.9176590442657466, -137.29352024862786, -470.73419937664914)" cx="188.8" cy="236" r="16.8">
    <title>left pupil</title>
  </circle>
  <circle style="stroke: rgb(0, 0, 0); fill: rgb(255, 255, 255);" transform="matrix(1.5914499759674072, 0, 0, 3.120491981506347, -151.298281213415, -536.6393517913708)" cx="256.4" cy="242.8" r="20.4">
    <title>rise pupil</title>
  </circle>
  <circle style="fill: rgb(0,0,0); stroke: rgb(0, 0, 0);" cx="195.638" cy="291.677" r="5.729" transform="matrix(0.9999999999999999, 0, 0, 0.9999999999999999, -5.684341886080802e-14, -1.4210854715202004e-14)">
    <title>nose</title>
  </circle>
  <circle style="fill: rgb(0, 0, 0); stroke: rgb(0, 0, 0);" cx="209.829" cy="292.536" r="5.729" transform="matrix(0.9999999999999999, 0, 0, 0.9999999999999999, -5.684341886080802e-14, -1.4210854715202004e-14)">
    <title>nose</title>
  </circle>
  <circle style="stroke: rgb(0, 0, 0);" cx="160.21" cy="223.216" r="16.589" transform="matrix(0.9999999999999999, 0, 0, 0.9999999999999999, -5.684341886080802e-14, -1.4210854715202004e-14)">
    <title>left pupil</title>
  </circle>
  <circle style="fill: rgb(255, 255, 255); stroke: rgb(0, 0, 0);" cx="150.005" cy="224.559" r="5.729" transform="matrix(0.9999999999999999, 0, 0, 0.9999999999999999, -5.684341886080802e-14, -1.4210854715202004e-14)">
    <title>left eye flare</title>
  </circle>
  <circle style="stroke: rgb(0, 0, 0);" cx="242.725" cy="225.019" r="16.589" transform="matrix(0.9999999999999999, 0, 0, 0.9999999999999999, -5.684341886080802e-14, -1.4210854715202004e-14)">
    <title>right pupil</title>
  </circle>
  <circle style="fill: rgb(255, 255, 255); stroke: rgb(0, 0, 0);" cx="232.463" cy="225.019" r="5.729" transform="matrix(0.9999999999999999, 0, 0, 0.9999999999999999, -5.684341886080802e-14, -1.4210854715202004e-14)">
    <title>right eye flare</title>
  </circle>
 
  <path id="hair" style="stroke: rgb(0, 0, 0);" d="M 202.503 135.311 L 158.49 139.944 C 158.49 139.944 129.535 195.538 128.376 195.538 C 127.217 195.538 124.902 149.21 126.06 145.735 C 127.218 142.26 88.997 166.583 88.997 166.583 C 88.997 166.583 139.959 93.615 141.117 91.298 C 142.275 88.981 65.832 97.089 65.832 95.931 C 65.832 94.773 167.756 48.444 167.756 48.444 L 164.281 21.805 C 164.281 21.805 226.825 44.969 227.984 44.969 C 229.143 44.969 317.167 49.602 317.167 48.444 C 317.167 47.286 282.42 77.4 282.42 77.4 L 394.768 83.191 L 366.97 112.146 C 366.97 112.146 432.989 161.95 434.147 161.95 C 435.305 161.95 388.977 159.633 388.977 159.633 L 387.818 202.488 L 350.755 183.956 C 350.755 183.956 368.129 248.817 366.97 248.817 C 365.811 248.817 342.648 214.07 342.648 214.07 C 342.648 214.07 350.755 262.715 349.597 262.715 C 348.439 262.715 297.477 161.95 297.477 161.95 C 297.477 161.95 303.268 214.07 302.11 211.754 C 300.952 209.438 238.408 126.045 238.408 126.045 C 238.408 126.045 240.724 161.95 239.566 161.95 C 238.408 161.95 202.503 137.627 202.503 135.311 Z" transform="matrix(0.9999999999999999, 0, 0, 0.9999999999999999, -5.684341886080802e-14, -1.4210854715202004e-14)">
    <title>hair</title>
  </path>
</svg>