<?xml version="1.0" encoding="utf-8"?>
<svg xmlns="http://www.w3.org/2000/svg" viewBox="65.832 21.805 368.3364 456.39" width="368.336px" height="456.39px">
  

  <path style="stroke: rgb(0, 0, 0);" d="M 256.649 325.077 L 257.066 457.47 C 257.066 457.47 201.027 454.58 199.148 453.641 C 197.269 452.702 194.903 330.265 194.903 330.265 L 256.649 325.077 Z" transform="matrix(1, 0, 0, 1, 0, 8.881784197001252e-16)">
    <title>mouth</title>
  </path>
  <path style="stroke: rgb(0, 0, 0); fill: rgb(255, 255, 255);" d="M 208.175 351.153 C 208.175 351.153 233.155 352.109 232.676 351.511 C 232.197 350.913 229.688 327.846 229.688 327.846 L 208.055 329.4 L 208.175 351.153 Z" transform="matrix(1, 0, 0, 1, 0, 8.881784197001252e-16)"/>
  <path style="stroke: rgb(0, 0, 0); fill: rgb(255, 255, 255);" d="M 226.876 352.049 C 226.876 352.049 240.058 351.861 240.247 351.861 C 240.436 351.861 239.493 326.815 239.493 326.815 L 225.935 327.757 L 226.876 352.049 Z" transform="matrix(1, 0, 0, 1, 0, 8.881784197001252e-16)"/>
  <path style="stroke: rgb(0, 0, 0); fill: rgb(255, 255, 255); transform-origin: 218.012px 445.54px;" d="M 213.49 434.272 L 207.708 452.36 L 222.089 456.807 L 228.316 436.792 L 213.49 434.272 Z" transform="matrix(0.970296025276, -0.241922006011, 0.241922006011, 0.970296025276, 3.18849e-7, -0.000003785364)"/>
  <path style="stroke: rgb(0, 0, 0); fill: rgb(255, 255, 255); transform-origin: 231.063px 445.035px;" d="M 227.579 432.729 L 221.204 453.041 L 234.251 457.34 L 240.922 438.215 L 227.579 432.729 Z" transform="matrix(0.970296025276, -0.241922006011, 0.241922006011, 0.970296025276, -0.000011682771, 0.00000434655)"/>
</svg>