<?xml version="1.0" encoding="utf-8"?>
<svg viewBox="0 0 500 500" xmlns="http://www.w3.org/2000/svg">
  <path style="fill: rgb(216, 216, 216); stroke: rgb(0, 0, 0); transform-origin: 153.894px 265.826px;" d="M 154.313 245.036 L 139.613 231.176 L 128.273 256.796 L 158.933 300.477 L 179.514 287.877 L 179.514 275.277 L 154.313 245.036 Z">
    <title>left ear</title>
  </path>
  <path style="fill: rgb(216, 216, 216); stroke: rgb(0, 0, 0); transform-origin: 155.573px 266.247px;" d="M 140.033 258.056 L 143.813 244.616 L 153.473 258.896 L 150.533 266.456 C 150.533 266.456 155.993 271.076 156.413 271.076 C 156.833 271.076 163.133 268.136 163.133 268.136 L 171.113 278.217 L 165.653 287.877" transform="matrix(1, 0, 0, 1, 1e-12, 1e-12)">
    <title>right ear inner</title>
  </path>
  <path style="fill: rgb(216, 216, 216); stroke: rgb(0, 0, 0); transform-origin: 337.179px 269.733px;" d="M 337.598 290.523 L 322.898 304.383 L 311.558 278.763 L 342.218 235.082 L 362.799 247.682 L 362.799 260.282 L 337.598 290.523 Z" transform="matrix(-0.996195018291, 0.087156012654, -0.087156012654, -0.996195018291, -0.000011764658, 0.000018755298)">
    <title>right ear</title>
  </path>
  <path style="fill: rgb(216, 216, 216); stroke: rgb(0, 0, 0); transform-origin: 335.541px 270.298px;" d="M 320.001 278.488 L 323.781 291.928 L 333.441 277.648 L 330.501 270.088 C 330.501 270.088 335.961 265.468 336.381 265.468 C 336.801 265.468 343.101 268.408 343.101 268.408 L 351.081 258.327 L 345.621 248.667" transform="matrix(-0.996195018291, 0.087156012654, -0.087156012654, -0.996195018291, -0.000004919532, 0.00001352839)">
    <title>right ear inner</title>
  </path>
  <path id = 'face' style="fill: rgb(216, 216, 216); stroke: rgb(0, 0, 0);" d="M 152.545 115.57 L 344.438 117.291 C 356.797 111.587 354.596 204.15 341.488 235.796 C 328.38 267.442 318.907 265.878 311.149 284.608 C 303.391 303.338 311.049 422.884 300.085 433.13 C 289.121 443.376 196.746 445.704 186.789 433.991 C 176.832 422.278 192.08 285.895 179.341 273.156 C 166.602 260.417 160.609 257.772 152.964 239.315 C 145.319 220.858 145.047 112.162 152.545 115.57 Z" transform="matrix(1, 0, 0, 1, 1.1368683772161603e-13, 2.842170943040401e-14)">
    <title>face</title>
  </path>
  <rect x="212.714" y="344.009" width="62.796" height="53.37" style="stroke: rgb(0, 0, 0); fill: rgb(76, 76, 76);" transform="matrix(1, 0, 0, 1, 1.1368683772161603e-13, 2.842170943040401e-14)">
    <title>mouth</title>
  </rect>
  <path style="stroke: rgb(0, 0, 0); fill: rgb(255, 255, 255); transform-origin: 186.09px 223.436px;" d="M 154.268 208.021 C 151.22 215.287 153.452 222.757 163.241 230.747 C 173.028 238.736 212.259 244.746 215.901 242.327 C 219.542 239.909 223.016 216.113 209.496 210.291 C 195.978 204.469 157.317 200.754 154.268 208.021 Z" transform="matrix(0.788011014462, 0.615661025047, -0.615661025047, 0.788011014462, 0.000002559563, 0.000010783142)">
    <title>left eye</title>
  </path>
  <circle style="stroke: rgb(0, 0, 0); stroke-width: 0.890517px; fill: rgb(255, 255, 255); transform-origin: 590.8px 329.8px;" transform="matrix(0.645526230335, -0.601962983608, 0.929728090763, 0.997011125088, -402.003542414484, -105.537919807046)" cx="590.8" cy="329.8" r="10.8">
    <title>left eye inner</title>
  </circle>
  <circle style="stroke: rgb(0, 0, 0); stroke-width: 0.653912px;" cx="181.23" cy="188.932" r="2.264" transform="matrix(1.9537020921707153, 0, 0, 1.992118000984192, -165.1352563669568, -151.13963543086695)">
    <title>left pupil</title>
  </circle>
  <path style="stroke: rgb(0, 0, 0); fill: rgb(255, 255, 255); transform-origin: 301.662px 221.934px;" d="M 269.84 237.349 C 266.792 230.083 269.024 222.613 278.813 214.623 C 288.6 206.634 327.831 200.624 331.473 203.043 C 335.114 205.461 338.588 229.257 325.068 235.079 C 311.55 240.901 272.889 244.616 269.84 237.349 Z" transform="matrix(-0.743145108223, 0.669130027294, -0.669130027294, -0.743145108223, 0.000099644416, 0.000039085802)">
    <title>right eye</title>
  </path>
  <circle style="stroke: rgb(0, 0, 0); fill: rgb(255, 255, 255); stroke-width: 0.890517px; transform-origin: 590.8px 329.8px;" transform="matrix(0.655933916569, 0.590605020523, -0.912186026573, 1.013085007668, -294.059851463445, -104.587646538868)" cx="590.8" cy="329.8" r="10.8">
    <title>right eye inner</title>
  </circle>
  <circle style="stroke: rgb(0, 0, 0); stroke-width: 0.653912px;" cx="181.23" cy="188.932" r="2.264" transform="matrix(1.9537020921707153, 0, 0, 1.992118000984192, -57.191483396164585, -150.18930277510432)">
    <title>right eye pupil</title>
  </circle>
  <rect x="225.178" y="342.57" width="16.298" height="18.695" style="stroke: rgb(0, 0, 0); fill: rgb(255, 255, 255);" transform="matrix(1, 0, 0, 1, 1.1368683772161603e-13, 2.842170943040401e-14)">
    <title>upper teeth</title>
  </rect>
  <rect x="242.914" y="343.049" width="15.34" height="18.216" style="stroke: rgb(0, 0, 0); fill: rgb(255, 255, 255);" transform="matrix(1, 0, 0, 1, 1.1368683772161603e-13, 2.842170943040401e-14)">
    <title>upper teeth</title>
  </rect>
  <path d="M 210.047 346.428 C 207.511 348.172 258.171 357.733 275.923 345.518 L 276.115 336.714 L 210.047 336.714 L 210.047 346.428 Z" style="stroke: rgb(0, 0, 0); fill: rgb(176, 176, 176); transform-origin: 243.035px 344.174px;" transform="matrix(-1, 0, 0, -1, 0.00000724301, 0.00001025718)">
    <title>upper lip</title>
  </path>
  <rect x="226.194" y="383.245" width="18.695" height="20.133" style="stroke: rgb(0, 0, 0); fill: rgb(255, 255, 255);" transform="matrix(1, 0, 0, 1, 1.1368683772161603e-13, 2.842170943040401e-14)">
    <title>lower teeth</title>
  </rect>
  <rect x="244.889" y="384.203" width="16.298" height="17.736" style="stroke: rgb(0, 0, 0); fill: rgb(255, 255, 255);" transform="matrix(1, 0, 0, 1, 1.1368683772161603e-13, 2.842170943040401e-14)">
    <title>lower teeth</title>
  </rect>
  <path d="M 210.639 405.41 C 208.103 407.224 258.763 417.166 276.515 404.463 L 276.707 395.308 L 210.639 395.308 L 210.639 405.41 Z" style="stroke: rgb(0, 0, 0); fill: rgb(176, 176, 176); transform-origin: 243.627px 403.066px;" transform="matrix(0.999391019344, 0.034900005907, -0.034900005907, 0.999391019344, -0.000001757602, 0.000002104026)">
    <title>lower lip</title>
  </path>
  <path style="fill: rgb(216, 216, 216); stroke: rgb(0, 0, 0);" d="M 225.418 291.851 L 230.071 286.632 L 231.364 293.1 L 248.13 293.29 L 249.192 287.111 L 253.218 292.338" transform="matrix(1, 0, 0, 1, 1.1368683772161603e-13, 2.842170943040401e-14)">
    <title>nose</title>
  </path>
  <path style="" d="M 247.392 74.143 L 169.617 63.489 C 169.617 63.489 186.664 79.47 187.729 80.535 C 188.794 81.6 123.805 78.404 123.805 78.404 C 123.805 78.404 142.982 115.694 140.851 115.694 C 138.72 115.694 89.712 138.067 89.712 138.067 L 125.936 158.31 L 109.955 212.645 L 128.067 209.449 C 128.067 209.449 138.721 272.308 137.655 272.308 C 136.589 272.308 155.855 173.121 155.855 173.121 L 169.985 188.421 L 198.383 145.525 L 205.841 163.637 C 205.841 163.637 223.953 143.394 223.953 142.329 C 223.953 141.264 259.111 180.683 259.111 179.618 C 259.111 178.553 247.392 135.936 247.392 135.936 C 247.392 135.936 304.924 180.683 304.924 179.618 C 304.924 178.553 288.943 144.459 288.943 144.459 L 326.232 171.095 C 326.232 171.095 315.578 150.852 315.578 149.786 C 315.578 148.72 324.101 208.384 324.101 209.449 C 324.101 210.514 334.755 201.991 334.755 201.991 C 334.755 201.991 347.54 248.869 348.605 249.934 C 349.67 250.999 360.325 215.842 361.39 211.58 C 362.455 207.318 376.306 212.645 379.502 213.711 C 382.698 214.777 369.913 156.179 369.913 155.113 C 369.913 154.047 392.287 156.179 392.287 156.179 L 336.886 81.601 L 368.848 65.62 L 280.419 76.274 L 299.597 58.162 L 247.392 74.143 Z" transform="matrix(1, 0, 0, 1, 1.1368683772161603e-13, 2.842170943040401e-14)">
    <title>hair</title>
  </path>
  <path style="stroke: rgb(0, 0, 0); transform-origin: 194.561px 177.643px;" d="M 225.637 197.695 C 225.637 197.695 178.688 173.243 177.71 172.265 C 176.732 171.287 158.637 171.776 158.148 171.287 C 157.659 170.798 161.571 157.593 161.571 157.593 C 161.571 157.593 174.505 157.308 187.002 162.484 C 199.499 167.66 231.016 185.958 231.016 185.958 L 225.637 197.695 Z" transform="matrix(1, 0, 0, 1, 0, -0.000007629395)">
    <title>left eyebrow</title>
  </path>
  <path style="stroke: rgb(0, 0, 0); transform-origin: 293.615px 181.068px;" d="M 324.691 161.016 C 324.691 161.016 277.742 185.468 276.764 186.446 C 275.786 187.424 257.691 186.935 257.202 187.424 C 256.713 187.913 260.625 201.118 260.625 201.118 C 260.625 201.118 273.559 201.403 286.056 196.227 C 298.553 191.051 330.07 172.753 330.07 172.753 L 324.691 161.016 Z" transform="matrix(-1, 0, 0, -1, -0.000113319909, 0.000005396259)">
    <title>right eyebrow</title>
  </path>
  <path style="fill: rgb(216, 216, 216); stroke: rgb(0, 0, 0);" d="M 173.197 330.696 L 174.018 327.925 L 170.425 325.872 C 170.425 325.872 168.886 321.355 166.32 321.355 C 163.754 321.355 163.241 316.121 163.241 316.018 C 163.241 315.916 163.446 322.382 163.241 322.177 C 163.035 321.971 159.546 317.455 159.546 317.455 C 159.546 317.455 161.598 322.69 161.701 322.792 C 161.804 322.895 155.132 319.919 155.132 319.919 L 159.854 324.127 C 159.854 324.127 155.03 328.233 155.03 328.13 C 155.03 328.027 161.804 339.42 161.804 339.42 L 147.054 346.492 L 139.376 333.696 L 146.356 326.483 L 115.05 316.847 C 115.05 316.847 128.47 331.385 121.234 336.208 C 118.902 335.375 136.921 339.427 130.005 347.172 C 130.005 347.172 141.845 344.102 140.091 353.092 L 146.888 351.337 C 146.888 351.337 138.337 364.931 138.337 364.712 C 138.337 364.493 158.29 394.751 151.712 397.601 C 151.712 397.601 130.444 400.013 129.347 392.12 L 136.364 392.558 L 123.427 384.884 L 125.62 400.232 C 125.62 400.232 126.935 396.505 126.935 396.286 C 126.935 396.067 154.562 408.787 158.071 403.305 C 161.579 397.824 152.37 375.895 152.808 370.852 C 153.247 365.809 171.665 354.846 174.296 351.337 C 176.927 347.829 174.663 341.886 174.663 341.886 L 161.406 331.469 L 162.955 326.907 L 173.197 330.696 Z" transform="matrix(1, 0, 0, 1, 1.1368683772161603e-13, 2.842170943040401e-14)">
    <title>left dragon</title>
  </path>
  <path style="fill: rgb(216, 216, 216); stroke: rgb(0, 0, 0); transform-origin: 349.507px 358.251px;" d="M 377.395 387.902 L 378.216 390.673 L 374.623 392.726 C 374.623 392.726 373.084 397.243 370.518 397.243 C 367.952 397.243 367.439 402.477 367.439 402.58 C 367.439 402.682 367.644 396.216 367.439 396.421 C 367.233 396.627 363.744 401.143 363.744 401.143 C 363.744 401.143 365.796 395.908 365.899 395.806 C 366.002 395.703 359.33 398.679 359.33 398.679 L 364.052 394.471 C 364.052 394.471 359.228 390.365 359.228 390.468 C 359.228 390.571 366.002 379.178 366.002 379.178 L 351.252 372.106 L 343.574 384.902 L 350.554 392.115 L 319.248 401.751 C 319.248 401.751 332.668 387.213 325.432 382.39 C 323.1 383.223 341.119 379.171 334.203 371.426 C 334.203 371.426 346.043 374.496 344.289 365.506 L 351.086 367.261 C 351.086 367.261 342.535 353.667 342.535 353.886 C 342.535 354.105 362.488 323.847 355.91 320.997 C 355.91 320.997 334.642 318.585 333.545 326.478 L 340.562 326.04 L 327.625 333.714 L 329.818 318.366 C 329.818 318.366 331.133 322.093 331.133 322.312 C 331.133 322.531 358.76 309.811 362.269 315.293 C 365.777 320.774 356.568 342.703 357.006 347.746 C 357.445 352.789 375.863 363.752 378.494 367.261 C 381.125 370.769 378.861 376.712 378.861 376.712 L 365.604 387.129 L 367.153 391.691 L 377.395 387.902 Z" transform="matrix(-1, 0, 0, -1, 0.00001041613, 0.000010676701)">
    <title>right dragon</title>
  </path>
  <path style="fill: rgb(216, 216, 216); stroke: rgb(0, 0, 0);" d="M 159.685 292.425 L 159.685 317.783" transform="matrix(1, 0, 0, 1, 1.1368683772161603e-13, 2.842170943040401e-14)">
    <title>earring line</title>
  </path>
  <path style="fill: rgb(216, 216, 216); stroke: rgb(0, 0, 0);" d="M 335.107 315.858 L 335.107 298.49" transform="matrix(1, 0, 0, 1, 1.1368683772161603e-13, 2.842170943040401e-14)">
    <title>earring line</title>
  </path>
</svg>