<?xml version="1.0" encoding="utf-8"?>
<svg viewBox="-6.147 8.196 500 499.939" xmlns="http://www.w3.org/2000/svg">
  <path style="fill: rgb(216, 216, 216); stroke: rgb(255, 0, 0); paint-order: fill;" d="M 169.549 119.663 L 97.836 148.348 L 145.986 94.052 L 103.983 119.663 L 156.231 60.244 L 120.375 48.975 C 120.375 48.975 206.43 41.804 207.454 41.804 C 208.478 41.804 273.02 17.217 274.044 17.217 C 275.068 17.217 284.289 50 284.289 50 L 404.151 45.902 L 350.879 89.954 L 408.249 146.299 C 408.249 146.299 322.194 140.152 321.17 140.152 C 320.146 140.152 315.023 195.474 315.023 196.498 C 315.023 197.522 218.723 104.296 218.723 104.296 C 218.723 104.296 218.723 177.033 214.625 174.984 C 210.527 172.935 173.647 123.761 169.549 119.663 Z" transform="matrix(0.9999999999999999, 0, 0, 0.9999999999999999, 0, 0)"/>
</svg>