<?xml version="1.0" encoding="utf-8"?>
<svg viewBox="-6.147 8.196 500 499.939" xmlns="http://www.w3.org/2000/svg">
  <path style="fill: rgb(216, 216, 216); stroke: rgb(0, 0, 0);" d="M 123.448 219.065 C 123.448 219.065 85.543 249.799 87.592 267.215 C 89.641 284.631 147.011 400.395 143.937 412.689 C 140.863 424.983 134.717 455.716 138.815 465.961 C 142.913 476.206 215.65 485.426 227.943 482.352 C 240.236 479.278 346.781 373.759 351.904 355.319 C 357.027 336.879 352.929 211.893 352.929 211.893 C 352.929 211.893 350.879 87.933 323.218 70.517 C 295.557 53.101 210.528 30.99 172.622 64.797 C 134.716 98.604 135.742 151.877 135.742 151.877 C 135.742 151.877 144.962 206.174 123.448 219.065 Z" transform="matrix(0.9999999999999999, 0, 0, 0.9999999999999999, 0, 0)"/>
</svg>